<svg width="14" height="14" viewBox="0 0 14 14" fill="none" xmlns="http://www.w3.org/2000/svg">
<path d="M13.3127 7.06945C13.3127 8.2169 12.9698 9.33523 12.3209 10.3034C12.1608 10.5423 11.8377 10.6059 11.5994 10.4454C11.3609 10.285 11.2975 9.96133 11.4575 9.72242C11.9908 8.92668 12.2727 8.0093 12.2727 7.06945C12.2727 4.2847 9.82342 2.01922 6.81274 2.01922C3.80207 2.01922 1.35277 4.2847 1.35277 7.06945C1.35277 8.56811 2.07442 9.98409 3.33274 10.9543C3.46059 11.0529 3.53557 11.2055 3.53557 11.3673V12.5981L4.81432 11.9322C4.93245 11.8707 5.06962 11.8569 5.19756 11.8937C5.71926 12.0437 6.26278 12.1197 6.81274 12.1197C7.88084 12.1197 8.9158 11.8334 9.80606 11.2916C10.0514 11.1423 10.3713 11.2206 10.5204 11.4666C10.6694 11.7125 10.5914 12.0329 10.3459 12.1824C9.29299 12.8231 8.07127 13.1618 6.81284 13.1618C6.23679 13.1618 5.6664 13.0907 5.11425 12.9505L3.25538 13.9184C3.1801 13.9576 3.09778 13.9771 3.01566 13.9771C2.92193 13.9771 2.8284 13.9518 2.74568 13.9015C2.59046 13.807 2.49564 13.6381 2.49564 13.4561V11.6173C1.10491 10.4547 0.312744 8.8111 0.312744 7.06945C0.312744 3.71008 3.2286 0.977112 6.81274 0.977112C10.3969 0.977112 13.3127 3.71008 13.3127 7.06945ZM9.63686 5.44646L7.54719 6.89504L6.42752 5.77214C6.32764 5.67206 6.19137 5.6172 6.05023 5.61949C5.909 5.62207 5.7749 5.682 5.6787 5.78575L3.36378 8.2817C3.17336 8.48712 3.17921 8.80663 3.37708 9.00489L3.40306 9.03093C3.50373 9.1318 3.63683 9.18348 3.77083 9.18348C3.87656 9.18348 3.98278 9.15138 4.07393 9.08579L6.11341 7.61873L7.24865 8.74362C7.34803 8.84211 7.48272 8.89637 7.62237 8.89408C7.76212 8.8919 7.89502 8.83356 7.99123 8.73199L10.3357 6.2598C10.53 6.05497 10.5258 5.73228 10.3265 5.53243L10.3005 5.50639C10.1227 5.3285 9.84355 5.30326 9.63686 5.44646Z" fill="white"/>
</svg>
