<svg width="14" height="13" viewBox="0 0 14 13" fill="none" xmlns="http://www.w3.org/2000/svg">
<path fill-rule="evenodd" clip-rule="evenodd" d="M12.8745 10.7953C12.8745 10.494 13.1187 10.2498 13.42 10.2498C13.7213 10.2498 13.9655 10.494 13.9655 10.7953C13.9655 11.9983 12.9867 12.9771 11.7836 12.9771H7.35736L7.35223 12.9771L7.34839 12.9771H2.18365C0.980594 12.9771 0.00183105 11.9983 0.00183105 10.7953V3.15893C0.00183105 1.95585 0.980594 0.977112 2.18365 0.977112H11.7836C12.9866 0.977112 13.9654 1.95587 13.9654 3.15893V8.06634L13.9653 8.07499V8.07512L13.9652 8.08071L13.9652 8.08257L13.9651 8.08549C13.9627 8.16152 13.9448 8.2336 13.9144 8.2987C13.8848 8.36225 13.8424 8.42094 13.7877 8.47082L13.7865 8.47194L13.7852 8.47317C13.7597 8.4961 13.7322 8.51667 13.7028 8.53453L13.6981 8.53731L13.6971 8.53789C13.6741 8.55149 13.6504 8.56325 13.6261 8.57315L13.6202 8.57555L13.6198 8.57569L13.6143 8.57784L13.6134 8.57817L13.6084 8.58005L13.6069 8.58059L13.6023 8.58226L13.6006 8.58286L13.5961 8.58441L13.5942 8.58504L13.5902 8.58638L13.5877 8.58719L13.5836 8.58848L13.5815 8.58916L13.5774 8.59038L13.5748 8.59118L13.5716 8.5921L13.5682 8.59306L13.565 8.59393L13.5619 8.59478L13.5585 8.59568L13.5554 8.59649L13.5521 8.59734L13.549 8.5981L13.5454 8.59895L13.5425 8.59963L13.5385 8.60053L13.5361 8.60108L13.5317 8.602L13.5296 8.60244L13.5245 8.60345L13.523 8.60372C13.4845 8.61108 13.4454 8.61425 13.4064 8.61327L13.4057 8.61324L13.4015 8.6131C13.3258 8.61059 13.254 8.59265 13.1891 8.56232C13.126 8.53289 13.0676 8.49087 13.0179 8.43662L13.0159 8.43441L13.0154 8.43376C13.0098 8.42759 13.0043 8.42127 12.999 8.41483L10.3245 5.22417L6.36592 10.2592L7.62005 11.8862H11.7836C12.3852 11.8862 12.8745 11.3968 12.8745 10.7953ZM1.09274 10.7953C1.09274 11.3968 1.58212 11.8862 2.18365 11.8862H6.2427L3.82045 8.74382L3.05193 9.7429C2.86827 9.98167 2.52584 10.0263 2.28701 9.84266C2.04824 9.65898 2.00359 9.31652 2.18725 9.07775L3.38766 7.51723C3.49085 7.38308 3.65048 7.30442 3.81974 7.30434H3.82001C3.98915 7.30434 4.14875 7.38281 4.25201 7.5168L5.67892 9.36793L9.88213 4.02178C9.98367 3.89261 10.1381 3.81609 10.3024 3.81352C10.467 3.81104 10.6234 3.88258 10.7289 4.00852L12.8745 6.5682V3.15893C12.8745 2.5574 12.3852 2.06802 11.7836 2.06802H2.18365C1.58212 2.06802 1.09274 2.5574 1.09274 3.15893V10.7953ZM2.18365 4.5771C2.18365 3.67481 2.91772 2.94073 3.82001 2.94073C4.72229 2.94073 5.45636 3.67481 5.45636 4.5771C5.45636 5.47939 4.72229 6.21346 3.82001 6.21346C2.91772 6.21346 2.18365 5.47939 2.18365 4.5771ZM3.27456 4.5771C3.27456 4.87786 3.51925 5.12255 3.82001 5.12255C4.12077 5.12255 4.36546 4.87786 4.36546 4.5771C4.36546 4.27633 4.12077 4.03164 3.82001 4.03164C3.51925 4.03164 3.27456 4.27633 3.27456 4.5771Z" fill="white"/>
</svg>
